<?xml version="1.0" encoding="UTF-8"?>
<svg id="Layer_1" data-name="Layer 1" xmlns="http://www.w3.org/2000/svg" viewBox="0 0 14.640045166014716 11.760009765624091">
  <defs>
    <style>
      .cls-1 {
        fill-rule: evenodd;
      }
    </style>
  </defs>
  <rect x="4.080047607421875" y="9.119995117186591" width="1.20001220703125" height=".239990234375"/>
  <polyline class="cls-1" points="4.320037841796875 8.879974365233466 5.280029296875 7.440002441405341 5.040008544921875 7.199981689452216 4.08001708984375 8.639984130858466"/>
  <polyline class="cls-1" points="4.320037841796875 9.599975585936591 5.280029296875 11.039978027342841 5.040008544921875 11.279998779295966 4.08001708984375 9.839996337889716"/>
  <rect x="9.360046386717841" y="9.119995117186591" width="1.20001220703125" height=".239990234375"/>
  <polyline class="cls-1" points="10.560028076170966 8.879974365233466 9.360015869139716 7.440002441405341 9.600006103514716 7.199981689452216 10.560028076170966 8.639984130858466"/>
  <polyline class="cls-1" points="10.560028076170966 9.599975585936591 9.360015869139716 11.039978027342841 9.600006103514716 11.279998779295966 10.560028076170966 9.839996337889716"/>
  <path class="cls-1" d="M1.680023193359375,7.440002441405341h-.96002197265625l-.720001220703125.720001220703125v2.6400146484375s.720001220703125.959991455078125,1.680023193359375.959991455078125c.959991455078125,0,1.439971923828125-.959991455078125,1.439971923828125-.959991455078125v-5.279998779295966h-1.439971923828125"/>
  <path class="cls-1" d="M12.960052490233466,7.440002441405341h.959991455078125l.720001220703125.720001220703125v2.6400146484375s-.720001220703125.959991455078125-1.67999267578125.959991455078125c-.96002197265625,0-1.680023193359375-.959991455078125-1.680023193359375-.959991455078125v-5.279998779295966h1.680023193359375"/>
  <path class="cls-1" d="M12.720031738280341,1.67999267578125l-2.6400146484375-1.67999267578125h-5.999999999999091L1.680023193359375,1.67999267578125v3.84002685546875h1.44000244140625v-3.1199951171875s-.240020751953125-1.44000244140625,4.079986572265625-1.44000244140625c4.320007324217841,0,4.080017089842841,1.44000244140625,4.080017089842841,1.44000244140625v3.1199951171875-3.1199951171875,3.1199951171875h1.44000244140625V1.67999267578125"/>
</svg>