<?xml version="1.0" encoding="UTF-8" standalone="no"?>
<!-- Created with Inkscape (http://www.inkscape.org/) -->
<!-- http://www.frequentis.com/uploads/media/Frequentis_smart3020X_01.pdf -->
<svg
   xmlns:svg="http://www.w3.org/2000/svg"
   xmlns="http://www.w3.org/2000/svg"
   version="1.0"
   width="250"
   height="44.187">
  <rect
       width="250"
       height="44.187"
       x="0"
       y="0"
       style="opacity:1;fill:#ffffff;fill-opacity:1;fill-rule:nonzero;stroke:none;stroke-width:20;stroke-linecap:butt;stroke-linejoin:miter;marker:none;marker-start:none;marker-mid:none;marker-end:none;stroke-miterlimit:4;stroke-dasharray:none;stroke-dashoffset:0;stroke-opacity:1;visibility:visible;display:inline;overflow:visible;enable-background:accumulate" />
  <path
     d="M 81.369,0 C 81.222,0.098 81.098,0.231 80.953,0.334 L 94.459,0.334 C 94.316,0.231 94.187,0.098 94.041,0 L 81.369,0 z M 234.02,0 L 233.687,0.334 L 248.526,0.334 C 248.525,0.114 248.526,0 248.526,0 L 234.02,0 z M 0,0.043 L 0,0.334 L 19.216,0.334 L 19.216,0.043 L 0,0.043 z M 21.635,0.043 L 21.635,0.334 L 40.476,0.334 L 40.06,0.043 L 21.635,0.043 z M 50.355,0.043 L 50.355,0.334 L 70.115,0.334 L 70.115,0.043 L 50.355,0.043 z M 105.88,0.043 L 105.88,0.334 L 117.218,0.334 L 117.218,0.043 L 105.88,0.043 z M 123.262,0.043 L 123.262,0.334 L 133.851,0.334 L 133.851,0.043 L 123.262,0.043 z M 137.019,0.043 L 137.019,0.334 L 157.486,0.334 L 157.486,0.043 L 137.019,0.043 z M 160.57,0.043 L 160.57,0.377 L 171.367,0.377 L 171.2,0.043 L 160.57,0.043 z M 179.245,0.043 L 179.245,0.377 L 189.334,0.377 L 189.334,0.043 L 179.245,0.043 z M 191.084,0.043 L 191.084,0.334 L 214.219,0.334 L 214.219,0.043 L 191.084,0.043 z M 216.303,0.043 L 216.303,0.334 L 227.017,0.334 L 227.017,0.043 L 216.303,0.043 z M 160.57,2.044 L 160.57,2.711 L 172.452,2.711 L 172.118,2.044 L 160.57,2.044 z M 179.245,2.044 L 179.245,2.711 L 189.334,2.711 L 189.334,2.044 L 179.245,2.044 z M 232.269,2.044 C 232.109,2.256 231.925,2.478 231.768,2.711 L 248.568,2.711 L 248.568,2.044 L 232.269,2.044 z M 0,2.085 L 0,2.711 L 19.216,2.711 L 19.216,2.085 L 0,2.085 z M 21.635,2.085 L 21.635,2.711 L 43.894,2.711 L 43.478,2.085 L 21.635,2.085 z M 50.355,2.085 L 50.355,2.711 L 70.115,2.711 L 70.115,2.085 L 50.355,2.085 z M 78.909,2.085 C 78.717,2.283 78.512,2.46 78.326,2.668 L 97.085,2.668 C 96.901,2.46 96.692,2.283 96.501,2.085 L 78.909,2.085 z M 105.88,2.085 L 105.88,2.711 L 117.218,2.711 L 117.218,2.085 L 105.88,2.085 z M 123.262,2.085 L 123.262,2.711 L 133.851,2.711 L 133.851,2.085 L 123.262,2.085 z M 137.019,2.085 L 137.019,2.711 L 157.486,2.711 L 157.486,2.085 L 137.019,2.085 z M 191.084,2.085 L 191.084,2.711 L 214.219,2.711 L 214.219,2.085 L 191.084,2.085 z M 216.303,2.085 L 216.303,2.711 L 227.017,2.711 L 227.017,2.085 L 216.303,2.085 z M 0,4.544 L 0,5.379 L 19.216,5.379 L 19.216,4.544 L 0,4.544 z M 21.635,4.544 L 21.635,5.379 L 46.063,5.379 L 45.812,4.544 L 21.635,4.544 z M 50.355,4.544 L 50.355,5.379 L 70.115,5.379 L 70.115,4.544 L 50.355,4.544 z M 105.88,4.544 L 105.88,5.379 L 117.218,5.379 L 117.218,4.544 L 105.88,4.544 z M 123.262,4.544 L 123.262,5.379 L 133.851,5.379 L 133.851,4.544 L 123.262,4.544 z M 137.019,4.544 L 137.019,5.379 L 157.486,5.379 L 157.486,4.544 L 137.019,4.544 z M 191.084,4.544 L 191.084,5.379 L 214.219,5.379 L 214.219,4.544 L 191.084,4.544 z M 216.303,4.544 L 216.303,5.379 L 227.017,5.379 L 227.017,4.544 L 216.303,4.544 z M 230.685,4.544 C 230.541,4.821 230.399,5.085 230.268,5.379 L 248.609,5.379 L 248.609,4.544 L 230.685,4.544 z M 76.867,4.586 C 76.695,4.839 76.529,5.073 76.367,5.336 L 99.043,5.336 C 98.882,5.073 98.713,4.839 98.543,4.586 L 76.867,4.586 z M 160.57,4.586 L 160.57,5.379 L 173.66,5.379 L 173.284,4.586 L 160.57,4.586 z M 179.245,4.586 L 179.245,5.379 L 189.334,5.379 L 189.334,4.586 L 179.245,4.586 z M 229.642,7.004 C 229.538,7.337 229.475,7.696 229.393,8.047 L 248.651,8.047 L 248.651,7.004 L 229.642,7.004 z M 0,7.046 L 0,8.047 L 19.216,8.047 L 19.216,7.046 L 0,7.046 z M 21.635,7.046 L 21.635,8.047 L 47.354,8.047 L 47.063,7.046 L 21.635,7.046 z M 50.355,7.046 L 50.355,8.047 L 70.115,8.047 L 70.115,7.046 L 50.355,7.046 z M 75.409,7.046 C 75.245,7.366 75.098,7.71 74.95,8.047 L 100.461,8.047 C 100.313,7.712 100.162,7.368 100.002,7.046 L 75.409,7.046 z M 105.88,7.046 L 105.88,8.047 L 117.218,8.047 L 117.218,7.046 L 105.88,7.046 z M 123.262,7.046 L 123.262,8.047 L 133.851,8.047 L 133.851,7.046 L 123.262,7.046 z M 137.019,7.046 L 137.019,8.047 L 157.486,8.047 L 157.486,7.046 L 137.019,7.046 z M 191.084,7.046 L 191.084,8.047 L 214.219,8.047 L 214.219,7.046 L 191.084,7.046 z M 216.303,7.046 L 216.303,8.047 L 227.017,8.047 L 227.017,7.046 L 216.303,7.046 z M 160.57,7.088 L 160.57,8.088 L 174.91,8.088 L 174.453,7.088 L 160.57,7.088 z M 179.245,7.088 L 179.245,8.088 L 189.334,8.088 L 189.334,7.088 L 179.245,7.088 z M 229.101,9.505 C 229.053,9.886 229.035,10.316 229.018,10.714 L 239.731,10.714 C 239.66,10.477 239.664,10.316 239.647,10.048 C 239.64,9.858 239.685,9.657 239.731,9.505 L 229.101,9.505 z M 246.567,9.505 C 247.082,9.911 247.507,10.34 247.86,10.714 L 248.693,10.714 L 248.693,9.505 L 246.567,9.505 z M 74.324,9.546 C 74.184,9.931 74.075,10.318 73.95,10.714 L 84.788,10.714 C 85.036,10.268 85.291,9.874 85.579,9.546 L 74.324,9.546 z M 89.831,9.546 C 90.115,9.874 90.377,10.268 90.624,10.714 L 101.462,10.714 C 101.336,10.318 101.184,9.929 101.044,9.546 L 89.831,9.546 z M 0,9.589 L 0,10.714 L 10.963,10.714 L 10.963,9.589 L 0,9.589 z M 21.635,9.589 L 21.635,10.714 L 32.347,10.714 L 32.347,9.589 L 21.635,9.589 z M 36.474,9.589 L 36.474,10.714 L 47.813,10.714 L 47.771,9.589 L 36.474,9.589 z M 50.355,9.589 L 50.355,10.714 L 61.069,10.714 L 61.069,9.589 L 50.355,9.589 z M 105.88,9.589 L 105.88,10.714 L 117.218,10.714 L 117.218,9.589 L 105.88,9.589 z M 123.262,9.589 L 123.262,10.714 L 133.851,10.714 L 133.851,9.589 L 123.262,9.589 z M 137.019,9.589 L 137.019,10.714 L 147.731,10.714 L 147.731,9.589 L 137.019,9.589 z M 160.57,9.589 L 160.57,10.714 L 176.12,10.714 L 175.577,9.589 L 160.57,9.589 z M 179.245,9.589 L 179.245,10.714 L 189.334,10.714 L 189.334,9.589 L 179.245,9.589 z M 196.92,9.589 L 196.92,10.714 L 208.009,10.714 L 208.009,9.589 L 196.92,9.589 z M 216.303,9.589 L 216.303,10.714 L 227.017,10.714 L 227.017,9.589 L 216.303,9.589 z M 0,12.382 L 0,13.799 L 10.963,13.799 L 10.963,12.382 L 0,12.382 z M 21.635,12.382 L 21.635,13.799 L 32.222,13.799 L 32.222,12.382 L 21.635,12.382 z M 37.516,12.382 L 37.516,13.799 L 47.646,13.799 L 47.895,12.382 L 37.516,12.382 z M 50.355,12.382 L 50.355,13.799 L 61.319,13.799 L 61.319,12.382 L 50.355,12.382 z M 73.491,12.382 C 73.375,12.847 73.251,13.317 73.157,13.799 L 83.578,13.799 C 83.702,13.297 83.878,12.827 84.037,12.382 L 73.491,12.382 z M 91.373,12.382 C 91.529,12.827 91.668,13.297 91.791,13.799 L 102.253,13.799 C 102.161,13.317 102.034,12.847 101.919,12.382 L 91.373,12.382 z M 105.88,12.382 L 105.88,13.799 L 117.218,13.799 L 117.218,12.382 L 105.88,12.382 z M 123.262,12.382 L 123.262,13.799 L 133.851,13.799 L 133.851,12.382 L 123.262,12.382 z M 137.019,12.382 L 137.019,13.799 L 147.731,13.799 L 147.731,12.382 L 137.019,12.382 z M 160.57,12.382 L 160.57,13.799 L 177.537,13.799 L 176.87,12.382 L 160.57,12.382 z M 179.245,12.382 L 179.245,13.799 L 189.334,13.799 L 189.334,12.382 L 179.245,12.382 z M 196.92,12.382 L 196.92,13.799 L 208.009,13.799 L 208.009,12.382 L 196.92,12.382 z M 216.303,12.382 L 216.303,13.799 L 227.017,13.799 L 227.017,12.382 L 216.303,12.382 z M 229.059,12.382 C 229.117,12.891 229.225,13.38 229.351,13.84 L 242.44,13.84 C 241.966,13.438 241.547,13.052 241.19,12.673 L 240.898,12.382 L 229.059,12.382 z M 230.06,15.591 C 230.419,16.292 230.869,16.957 231.352,17.549 L 246.65,17.549 C 245.981,16.849 245.268,16.185 244.566,15.591 L 230.06,15.591 z M 160.57,15.633 L 160.57,17.508 L 179.245,17.508 L 178.37,15.633 L 160.57,15.633 z M 179.245,17.508 L 189.334,17.508 L 189.334,15.633 L 179.245,15.633 L 179.245,17.508 z M 0,15.674 L 0,17.508 L 19.216,17.508 L 19.216,15.674 L 0,15.674 z M 21.635,15.674 L 21.635,17.508 L 32.222,17.508 L 32.222,15.674 L 21.635,15.674 z M 37.558,15.674 C 37.558,15.674 37.418,16.21 37.1,16.592 C 36.803,16.949 35.933,17.508 35.933,17.508 L 47.521,17.508 L 47.771,15.674 L 37.558,15.674 z M 50.355,15.674 L 50.355,17.508 L 69.614,17.508 L 69.614,15.674 L 50.355,15.674 z M 105.88,15.674 L 105.88,17.508 L 117.218,17.508 L 117.218,15.674 L 105.88,15.674 z M 123.262,15.674 L 123.262,17.508 L 133.851,17.508 L 133.851,15.674 L 123.262,15.674 z M 137.019,15.674 L 137.019,17.508 L 156.277,17.508 L 156.277,15.674 L 137.019,15.674 z M 196.92,15.674 L 196.92,17.508 L 208.009,17.508 L 208.009,15.674 L 196.92,15.674 z M 216.303,15.674 L 216.303,17.508 L 227.017,17.508 L 227.017,15.674 L 216.303,15.674 z M 72.865,15.717 C 72.793,16.298 72.737,16.872 72.698,17.467 L 83.036,17.467 C 83.072,16.86 83.162,16.286 83.244,15.717 L 72.865,15.717 z M 92.166,15.717 C 92.246,16.286 92.296,16.86 92.332,17.467 L 102.712,17.467 C 102.674,16.872 102.617,16.298 102.545,15.717 L 92.166,15.717 z M 0,19.426 L 0,21.885 L 19.216,21.885 L 19.216,19.426 L 0,19.426 z M 21.635,19.426 L 21.635,21.885 L 44.437,21.885 C 44.437,21.885 45.05,21.243 45.396,20.802 C 45.812,20.267 46.312,19.426 46.312,19.426 L 21.635,19.426 z M 50.355,19.426 L 50.355,21.885 L 69.614,21.885 L 69.614,19.426 L 50.355,19.426 z M 92.374,19.426 C 92.354,20.273 92.271,21.102 92.166,21.885 L 102.67,21.885 C 102.736,21.079 102.753,20.256 102.754,19.426 L 92.374,19.426 z M 105.88,19.426 L 105.88,21.885 L 117.218,21.885 L 117.218,19.426 L 105.88,19.426 z M 123.262,19.426 L 123.262,21.885 L 133.851,21.885 L 133.851,19.426 L 123.262,19.426 z M 137.019,19.426 L 137.019,21.885 L 156.277,21.885 L 156.277,19.426 L 137.019,19.426 z M 196.92,19.426 L 196.92,21.885 L 208.009,21.885 L 208.009,19.426 L 196.92,19.426 z M 216.303,19.426 L 216.303,21.885 L 227.017,21.885 L 227.017,19.426 L 216.303,19.426 z M 233.145,19.426 C 234.111,20.301 235.153,21.106 236.062,21.885 L 249.486,21.885 C 249.172,20.996 248.703,20.172 248.193,19.426 L 233.145,19.426 z M 72.616,19.468 C 72.616,20.291 72.677,21.086 72.741,21.885 L 83.203,21.885 C 83.1,21.103 83.056,20.315 83.036,19.468 L 72.616,19.468 z M 160.57,19.468 L 160.57,21.885 L 170.616,21.885 L 170.616,19.468 L 160.57,19.468 z M 172.493,19.468 L 172.493,21.885 L 189.334,21.885 L 189.334,19.468 L 172.493,19.468 z M 237.938,23.72 C 238.641,24.586 239.102,25.514 239.148,26.596 L 249.902,26.596 C 249.974,25.981 249.984,25.637 249.984,25.637 C 250.024,24.973 249.982,24.319 249.902,23.72 L 237.938,23.72 z M 0,23.762 L 0,26.553 L 11.13,26.553 L 11.13,24.303 L 19.216,24.303 L 19.216,23.762 L 0,23.762 z M 21.635,23.762 L 21.635,26.553 L 32.347,26.553 L 32.347,23.762 L 21.635,23.762 z M 32.681,23.762 L 33.889,26.553 L 44.019,26.553 L 42.977,24.344 L 42.977,23.762 L 32.681,23.762 z M 50.355,23.762 L 50.355,26.553 L 61.069,26.553 L 61.069,23.762 L 50.355,23.762 z M 72.949,23.762 C 73.088,24.73 73.264,25.678 73.491,26.596 L 84.496,26.596 C 84.107,25.785 83.783,24.825 83.537,23.762 L 72.949,23.762 z M 91.832,23.762 C 91.584,24.823 91.26,25.785 90.873,26.596 L 101.919,26.596 C 102.147,25.678 102.326,24.73 102.462,23.762 L 91.832,23.762 z M 105.88,23.762 L 105.88,26.553 L 117.218,26.553 L 117.218,23.762 L 105.88,23.762 z M 123.262,23.762 L 123.262,26.553 L 133.851,26.553 L 133.851,23.762 L 123.262,23.762 z M 137.019,23.762 L 137.019,26.553 L 147.731,26.553 L 147.731,23.762 L 137.019,23.762 z M 160.57,23.762 L 160.57,26.553 L 170.616,26.553 L 170.616,23.762 L 160.57,23.762 z M 172.951,23.762 L 174.119,26.553 L 189.334,26.553 L 189.334,23.762 L 172.951,23.762 z M 196.92,23.762 L 196.92,26.553 L 208.009,26.553 L 208.009,23.762 L 196.92,23.762 z M 216.303,23.762 L 216.303,26.553 L 227.017,26.553 L 227.017,23.762 L 216.303,23.762 z M 228.934,25.345 L 228.934,26.596 L 230.435,26.596 L 228.934,25.345 z M 228.934,28.389 L 228.934,32.265 L 248.234,32.265 C 248.915,30.903 249.315,29.517 249.568,28.389 L 238.73,28.389 C 238.029,29.432 236.318,30.479 234.228,29.723 C 233.523,29.465 232.853,28.597 232.853,28.597 L 232.602,28.389 L 228.934,28.389 z M 0,28.472 L 0,32.223 L 11.089,32.223 L 11.089,28.472 L 0,28.472 z M 21.635,28.472 L 21.635,32.223 L 32.347,32.223 L 32.347,28.472 L 21.635,28.472 z M 34.724,28.472 L 36.392,32.223 L 46.646,32.223 L 44.937,28.472 L 34.724,28.472 z M 50.355,28.472 L 50.355,32.223 L 70.115,32.223 L 70.115,29.723 L 61.069,29.723 L 61.069,28.472 L 50.355,28.472 z M 74.032,28.472 C 74.463,29.798 74.969,31.062 75.574,32.223 L 99.794,32.223 C 100.399,31.062 100.947,29.798 101.378,28.472 L 89.623,28.472 C 89.036,29.067 88.391,29.388 87.705,29.389 C 87.018,29.389 86.375,29.067 85.788,28.472 L 74.032,28.472 z M 105.964,28.472 C 106.021,29.976 106.303,31.225 106.839,32.223 L 120.219,32.223 L 132.892,32.223 C 133.428,31.224 133.713,29.976 133.768,28.472 L 123.013,28.472 C 122.439,29.055 121.724,29.776 120.219,29.723 C 118.716,29.776 118.125,29.055 117.551,28.472 L 105.964,28.472 z M 137.019,28.472 L 137.019,32.223 L 157.486,32.223 L 157.486,29.097 L 147.69,29.097 L 147.69,28.472 L 137.019,28.472 z M 160.57,28.472 L 160.57,32.223 L 170.616,32.223 L 170.616,28.472 L 160.57,28.472 z M 174.91,28.472 L 176.453,32.223 L 189.334,32.223 L 189.334,28.472 L 174.91,28.472 z M 196.92,28.472 L 196.92,32.223 L 208.009,32.223 L 208.009,28.472 L 196.92,28.472 z M 216.303,28.472 L 216.303,32.223 L 227.017,32.223 L 227.017,28.472 L 216.303,28.472 z M 228.934,34.015 L 228.934,37.393 C 228.934,37.393 231.367,39.179 237.063,39.06 C 242.22,38.952 245.333,36.666 247.193,34.015 L 228.934,34.015 z M 0,34.058 L 0,38.935 L 11.089,38.935 L 11.089,34.058 L 0,34.058 z M 21.635,34.058 L 21.635,38.935 L 32.347,38.935 L 32.347,34.058 L 21.635,34.058 z M 37.183,34.058 L 39.35,38.935 L 49.896,38.935 L 47.521,34.058 L 37.183,34.058 z M 50.355,34.058 L 50.355,38.935 L 70.115,38.935 L 70.115,34.058 L 50.355,34.058 z M 76.659,34.058 C 78.117,36.283 79.908,38.083 81.91,39.268 L 102.796,39.268 L 98.668,34.392 L 98.668,34.058 L 76.659,34.058 z M 107.714,34.058 C 110.012,37.189 114.606,39.31 119.886,39.31 C 125.167,39.31 129.718,37.187 132.017,34.058 L 107.714,34.058 z M 137.019,34.058 L 137.019,38.935 L 157.486,38.935 L 157.486,34.058 L 137.019,34.058 z M 160.57,34.058 L 160.57,39.018 L 170.616,39.018 L 170.616,34.058 L 160.57,34.058 z M 177.244,34.058 L 179.287,39.018 L 189.334,39.018 L 189.334,34.058 L 177.244,34.058 z M 196.92,34.058 L 196.92,38.935 L 208.009,38.935 L 208.009,34.058 L 196.92,34.058 z M 216.303,34.058 L 216.303,38.935 L 227.017,38.935 L 227.017,34.058 L 216.303,34.058 z M 92.458,40.893 L 94.541,44.187 L 100.211,40.893 L 92.458,40.893 z"
     style="fill:#0059a1;fill-opacity:1;fill-rule:nonzero;stroke:none" />
</svg>
