<?xml version="1.0" encoding="UTF-8"?>
<svg id="Layer_1" data-name="Layer 1" xmlns="http://www.w3.org/2000/svg" viewBox="0 0 314.400002419948578 248.879952371120453">
  <defs>
    <style>
      .cls-1 {
        font-family: Helvetica, Helvetica;
        font-size: 7px;
      }

      .cls-2 {
        stroke: #404040;
      }

      .cls-2, .cls-3, .cls-4, .cls-5, .cls-6, .cls-7, .cls-8 {
        fill: none;
        stroke-linecap: round;
        stroke-linejoin: round;
      }

      .cls-2, .cls-4, .cls-6 {
        stroke-width: .959999978542328px;
      }

      .cls-3 {
        stroke-width: .720000028610229px;
      }

      .cls-3, .cls-5, .cls-6, .cls-7, .cls-8 {
        stroke: #000;
      }

      .cls-9 {
        letter-spacing: -.056039663461538em;
      }

      .cls-10 {
        letter-spacing: -.004957932692308em;
      }

      .cls-11 {
        letter-spacing: -.007962740384615em;
      }

      .cls-11, .cls-12, .cls-13, .cls-14 {
        font-family: VSCS, VSCS;
      }

      .cls-11, .cls-12, .cls-14 {
        font-size: 6.5px;
      }

      .cls-15 {
        letter-spacing: -.076021634615385em;
      }

      .cls-16 {
        fill: #fff;
      }

      .cls-17 {
        letter-spacing: -.002103365384615em;
      }

      .cls-18 {
        fill: #ccc;
      }

      .cls-4 {
        stroke: #fff;
      }

      .cls-5 {
        stroke-width: .239999994635582px;
      }

      .cls-12 {
        letter-spacing: -.002028245192308em;
      }

      .cls-19 {
        letter-spacing: -.114032451923077em;
      }

      .cls-20 {
        letter-spacing: .000075120192308em;
      }

      .cls-7 {
        stroke-width: 2.160000085830688px;
      }

      .cls-21 {
        letter-spacing: .045072115384615em;
      }

      .cls-22 {
        letter-spacing: -.079026442307692em;
      }

      .cls-23 {
        letter-spacing: -.0009765625em;
      }

      .cls-13 {
        font-size: 6.400000095367432px;
      }

      .cls-24 {
        fill-rule: evenodd;
      }

      .cls-25 {
        letter-spacing: -.0029296875em;
      }

      .cls-26 {
        letter-spacing: -.001051682692308em;
      }

      .cls-27 {
        letter-spacing: .042067307692308em;
      }

      .cls-28 {
        fill: #f0ff00;
      }

      .cls-29 {
        letter-spacing: .044996995192308em;
      }

      .cls-8 {
        stroke-width: .479999989271164px;
      }

      .cls-30 {
        letter-spacing: -.001953125em;
      }
    </style>
  </defs>
  <polyline class="cls-2" points=".479999989271164 248.399952381849289 .479999989271164 .479999989271164 313.920002430677414 .479999989271164 313.920002430677414 248.399952381849289 .479999989271164 248.399952381849289"/>
  <rect class="cls-18" x="5.519993275403976" y="6.479938954114914" width="304.560012817382812" height="31.44000244140625"/>
  <polyline class="cls-8" points="5.759998768568039 37.679951161146164 5.759998768568039 6.959980458021164 309.839985340833664 6.959980458021164 309.839985340833664 37.679951161146164 5.759998768568039 37.679951161146164"/>
  <text class="cls-12" transform="translate(114.480091542004629 13.199726551772983)"><tspan x="0" y="0">AUTOMATIC</tspan></text>
  <text class="cls-14" transform="translate(153.485462635755539 13.199726551772983)"><tspan class="cls-10" x="0" y="0">TEST RESU</tspan><tspan class="cls-22" x="34.8896484375" y="0">L</tspan><tspan x="38.2861328125" y="0">T</tspan></text>
  <rect class="cls-16" x="5.519993275403976" y="40.079975575208664" width="96.000015258789062" height="124.079986572265625"/>
  <polyline class="cls-4" points="5.999989002943039 163.439960926771164 5.999989002943039 40.560017079114914 100.799976795911789 40.560017079114914 100.799976795911789 163.439960926771164 5.999989002943039 163.439960926771164"/>
  <rect class="cls-28" x="6.479999989271164" y="42.239948719739914" width="91.67999267578125" height="10.08001708984375"/>
  <text class="cls-11" transform="translate(29.040150135754629 48.720234364272983)"><tspan x="0" y="0">MANUAL TEST</tspan></text>
  <polyline class="cls-8" points="22.559986561536789 47.999958485364914 10.319981068372726 47.999958485364914 10.319981068372726 51.599995106458664"/>
  <polyline class="cls-8" points="82.799992054700851 47.999958485364914 95.999989002943039 47.999958485364914 95.999989002943039 51.599995106458664"/>
  <path class="cls-8" d="M102.719990223646164,12.479938954114914H14.639988392591476v3.36004638671875"/>
  <path class="cls-8" d="M210.959980458021164,12.479938954114914h89.279998779296875v3.36004638671875"/>
  <rect class="cls-16" x="246.479999989271164" y="165.119953602552414" width="63.839996337890625" height="6.720001220703125"/>
  <text class="cls-1" transform="translate(247.439564198255539 169.680195301772983)"><tspan x="0" y="0">−</tspan></text>
  <text class="cls-1" transform="translate(304.559681385755539 169.680195301772983)"><tspan x="0" y="0">+</tspan></text>
  <rect class="cls-16" x="246.479999989271164" y="40.079975575208664" width="63.839996337890625" height="6.719970703125"/>
  <text class="cls-1" transform="translate(247.439564198255539 44.640156239272983)"><tspan x="0" y="0">−</tspan></text>
  <text class="cls-1" transform="translate(304.559681385755539 44.640156239272983)"><tspan x="0" y="0">+</tspan></text>
  <rect class="cls-18" x="211.439991444349289" y="46.799946278333664" width="29.040008544921875" height="34.560028076171875"/>
  <text class="cls-14" transform="translate(216.479603260755539 57.839863270522983)"><tspan class="cls-15" x="0" y="0">P</tspan><tspan x="3.416015625" y="0">ASS</tspan></text>
  <text class="cls-14" transform="translate(217.679798573255539 65.760273426772983)"><tspan x="0" y="0">TEST</tspan></text>
  <rect class="cls-18" x="211.439991444349289" y="88.079975575208664" width="29.040008544921875" height="34.55999755859375"/>
  <text class="cls-14" transform="translate(218.639759510755539 99.359882801772983)"><tspan class="cls-9" x="0" y="0">F</tspan><tspan x="3.5458984375" y="0">AIL</tspan></text>
  <text class="cls-14" transform="translate(217.679798573255539 107.280292958022983)"><tspan x="0" y="0">TEST</tspan></text>
  <rect class="cls-16" x="211.439991444349289" y="130.559956043958664" width="29.040008544921875" height="34.55999755859375"/>
  <text class="cls-14" transform="translate(215.280384510755539 141.600117176772983)"><tspan x="0" y="0">RESET</tspan></text>
  <text class="cls-14" transform="translate(215.519642323255539 149.520039051772983)"><tspan x="0" y="0">TESTS</tspan></text>
  <rect class="cls-16" x="211.439991444349289" y="171.839954823255539" width="29.040008544921875" height="34.55999755859375"/>
  <rect class="cls-16" x="247.439991444349289" y="213.119984120130539" width="62.6400146484375" height="34.79998779296875"/>
  <polyline class="cls-5" points="247.439991444349289 247.919971913099289 247.439991444349289 213.119984120130539 310.079975575208664 213.119984120130539 310.079975575208664 247.919971913099289 247.439991444349289 247.919971913099289"/>
  <text class="cls-14" transform="translate(256.320423573255539 224.159687489272983)"><tspan class="cls-30" x="0" y="0">L</tspan><tspan class="cls-26" x="3.8974609375" y="0">OGI</tspan><tspan class="cls-17" x="15.6083984375" y="0">CAL</tspan><tspan class="cls-26" x="27.2998046875" y="0"> </tspan><tspan class="cls-30" x="31.193359375" y="0">PS</tspan><tspan x="38.98828125" y="0">N</tspan></text>
  <polyline class="cls-6" points="259.200001209974289 241.679951161146164 259.200001209974289 231.599964588880539 298.319996327161789 231.599964588880539 298.319996327161789 241.679951161146164 259.200001209974289 241.679951161146164"/>
  <rect class="cls-16" x="9.840000599622726" y="55.679951161146164" width="87.120010375976562" height="16.800018310546875"/>
  <text class="cls-14" transform="translate(9.839954823254629 61.199726551772983)"><tspan x="0" y="0">Select</tspan><tspan class="cls-27" x="23.4130859375" y="0"> </tspan><tspan x="27.5869140625" y="0">A</tspan></text>
  <text class="cls-14" transform="translate(9.839954823254629 68.879902333022983)"><tspan class="cls-23" x="0" y="0">M</tspan><tspan class="cls-30" x="3.90380859375" y="0">anual</tspan><tspan class="cls-25" x="23.341796875" y="0"> </tspan><tspan class="cls-19" x="27.22314453125" y="0">T</tspan><tspan class="cls-30" x="30.39208984375" y="0">e</tspan><tspan class="cls-23" x="34.27978515625" y="0">st</tspan><tspan class="cls-21" x="42.06787109375" y="0"> </tspan><tspan class="cls-23" x="46.26123046875" y="0">.</tspan><tspan class="cls-21" x="50.1552734375" y="0"> </tspan><tspan class="cls-23" x="54.3486328125" y="0">.</tspan><tspan class="cls-29" x="58.24267578125" y="0"> </tspan><tspan class="cls-20" x="62.435546875" y="0">.</tspan></text>
  <rect class="cls-16" x="246.479999989271164" y="81.359974354505539" width="63.839996337890625" height="6.720001220703125"/>
  <text class="cls-1" transform="translate(247.439564198255539 85.919941395522983)"><tspan x="0" y="0">−</tspan></text>
  <text class="cls-1" transform="translate(304.559681385755539 85.919941395522983)"><tspan x="0" y="0">+</tspan></text>
  <rect class="cls-16" x="246.479999989271164" y="123.119953602552414" width="63.839996337890625" height="6.720001220703125"/>
  <text class="cls-1" transform="translate(247.439564198255539 127.680195301772983)"><tspan x="0" y="0">−</tspan></text>
  <text class="cls-1" transform="translate(304.559681385755539 127.680195301772983)"><tspan x="0" y="0">+</tspan></text>
  <text class="cls-14" transform="translate(219.120228260755539 183.119648426772983)"><tspan x="0" y="0">LOG</tspan></text>
  <text class="cls-14" transform="translate(215.520618885755539 191.040546864272983)"><tspan x="0" y="0">TESTS</tspan></text>
  <text class="cls-13" transform="translate(253.200306385755539 112.319843739272983)"><tspan x="0" y="0">OVR</tspan></text>
  <text class="cls-13" transform="translate(251.519642323255539 120.239765614272983)"><tspan x="0" y="0">TONE</tspan></text>
  <text class="cls-13" transform="translate(252.719837635755539 154.560078114272983)"><tspan x="0" y="0">SIDE</tspan></text>
  <text class="cls-13" transform="translate(251.519642323255539 162.479999989272983)"><tspan x="0" y="0">TONE</tspan></text>
  <text class="cls-13" transform="translate(247.200306385755539 71.279804676772983)"><tspan x="0" y="0">SYSTEM</tspan></text>
  <text class="cls-13" transform="translate(249.839954823255539 79.199726551772983)"><tspan x="0" y="0">TONES</tspan></text>
  <polyline class="cls-24" points="256.319996327161789 50.399982899427414 261.359974354505539 55.680012196302414 266.639973133802414 50.399982899427414 263.999989002943039 50.399982899427414 263.999989002943039 48.240009754896164 258.719990223646164 48.240009754896164 258.719990223646164 50.399982899427414"/>
  <polyline class="cls-24" points="290.879993885755539 53.519978016614914 296.159992665052414 48.240009754896164 301.199970692396164 53.519978016614914 298.559986561536789 53.519978016614914 298.559986561536789 55.680012196302414 293.519978016614914 55.680012196302414 293.519978016614914 53.519978016614914"/>
  <polyline class="cls-24" points="256.319996327161789 91.679951161146164 261.359974354505539 96.959980458021164 266.639973133802414 91.679951161146164 263.999989002943039 91.679951161146164 263.999989002943039 89.519978016614914 258.719990223646164 89.519978016614914 258.719990223646164 91.679951161146164"/>
  <polyline class="cls-24" points="290.879993885755539 94.799946278333664 296.159992665052414 89.519947499036789 301.199970692396164 94.799946278333664 298.559986561536789 94.799946278333664 298.559986561536789 96.959949940443039 293.519978016614914 96.959949940443039 293.519978016614914 94.799946278333664"/>
  <polyline class="cls-24" points="256.319996327161789 134.159962147474289 261.359974354505539 139.439991444349289 266.639973133802414 134.159962147474289 263.999989002943039 134.159962147474289 263.999989002943039 131.999989002943039 258.719990223646164 131.999989002943039 258.719990223646164 134.159962147474289"/>
  <polyline class="cls-24" points="290.879993885755539 137.279957264661789 296.159992665052414 131.999958485364914 301.199970692396164 137.279957264661789 298.559986561536789 137.279957264661789 298.559986561536789 139.439960926771164 293.519978016614914 139.439960926771164 293.519978016614914 137.279957264661789"/>
  <polyline class="cls-24" points="256.319996327161789 175.439960926771164 261.359974354505539 180.719990223646164 266.639973133802414 175.439960926771164 263.999989002943039 175.439960926771164 263.999989002943039 173.279987782239914 258.719990223646164 173.279987782239914 258.719990223646164 175.439960926771164"/>
  <polyline class="cls-24" points="290.879993885755539 178.319965809583664 296.159992665052414 173.279987782239914 301.199970692396164 178.319965809583664 298.559986561536789 178.319965809583664 298.559986561536789 180.719990223646164 293.519978016614914 180.719990223646164 293.519978016614914 178.319965809583664"/>
  <rect class="cls-16" x="176.399982899427414" y="130.319965809583664" width="29.040008544921875" height="34.79998779296875"/>
  <polyline class="cls-8" points="179.520008534193039 161.999958485364914 179.520008534193039 133.439960926771164 202.319996327161789 133.439960926771164 202.319996327161789 161.999958485364914 179.520008534193039 161.999958485364914"/>
  <rect x="185.759998768568039" y="140.159962147474289" width="10.55999755859375" height="14.8800048828125"/>
  <rect class="cls-16" x="186.719990223646164" y="141.599964588880539" width="8.399993896484375" height="2.160003662109375"/>
  <rect class="cls-16" x="186.719990223646164" y="144.479969471693039" width=".720001220703125" height="1.44000244140625"/>
  <rect class="cls-16" x="186.959980458021164" y="146.879963368177414" width=".72003173828125" height="1.20001220703125"/>
  <rect class="cls-16" x="189.360004872083664" y="146.879963368177414" width=".720001220703125" height="1.20001220703125"/>
  <rect class="cls-16" x="191.759998768568039" y="146.879963368177414" width=".480010986328125" height="1.20001220703125"/>
  <rect class="cls-16" x="186.959980458021164" y="148.799946278333664" width=".72003173828125" height="1.20001220703125"/>
  <rect class="cls-16" x="189.360004872083664" y="148.799946278333664" width=".720001220703125" height="1.20001220703125"/>
  <rect class="cls-16" x="191.759998768568039" y="148.799946278333664" width=".480010986328125" height="1.20001220703125"/>
  <rect class="cls-16" x="186.959980458021164" y="150.719959706068039" width=".72003173828125" height="1.20001220703125"/>
  <rect class="cls-16" x="189.360004872083664" y="150.719959706068039" width=".720001220703125" height="1.20001220703125"/>
  <rect class="cls-16" x="191.759998768568039" y="150.719959706068039" width=".480010986328125" height="1.20001220703125"/>
  <rect class="cls-16" x="186.959980458021164" y="152.639942616224289" width=".72003173828125" height="1.20001220703125"/>
  <rect class="cls-16" x="189.360004872083664" y="152.639942616224289" width=".720001220703125" height="1.20001220703125"/>
  <rect class="cls-16" x="191.759998768568039" y="152.639942616224289" width=".480010986328125" height="1.20001220703125"/>
  <rect class="cls-16" x="190.319996327161789" y="144.479969471693039" width=".720001220703125" height="1.44000244140625"/>
  <rect class="cls-16" x="193.679981678724289" y="144.479969471693039" width=".719970703125" height="1.44000244140625"/>
  <rect class="cls-16" x="141.360004872083664" y="130.319965809583664" width="29.040008544921875" height="34.79998779296875"/>
  <polyline class="cls-8" points="144.479999989271164 161.999958485364914 144.479999989271164 133.439960926771164 167.279987782239914 133.439960926771164 167.279987782239914 161.999958485364914 144.479999989271164 161.999958485364914"/>
  <polyline class="cls-24" points="148.319996327161789 147.599964588880539 148.319996327161789 143.519978016614914 148.799976795911789 143.039967030286789 162.959980458021164 143.039967030286789 163.439991444349289 143.519978016614914 163.439991444349289 147.599964588880539 162.239979237318039 147.599964588880539 162.239979237318039 144.479969471693039 161.759968250989914 143.999989002943039 149.759968250989914 143.999989002943039 149.519978016614914 144.479969471693039 149.519978016614914 147.599964588880539"/>
  <polyline class="cls-24" points="148.319996327161789 147.839954823255539 148.319996327161789 151.919971913099289 148.799976795911789 152.399982899427414 162.959980458021164 152.399982899427414 163.439991444349289 151.919971913099289 163.439991444349289 147.839954823255539 162.239979237318039 147.839954823255539 162.239979237318039 150.959980458021164 161.759968250989914 151.199970692396164 149.759968250989914 151.199970692396164 149.519978016614914 150.959980458021164 149.519978016614914 147.839954823255539"/>
  <polyline class="cls-24" points="151.439991444349289 147.359974354505539 151.919971913099289 146.640003651380539 154.319965809583664 147.599995106458664 155.759968250989914 144.719990223646164 155.519978016614914 144.479999989271164 154.079975575208664 147.119984120130539 151.679981678724289 146.159992665052414 150.959980458021164 147.119984120130539"/>
  <polyline class="cls-24" points="156.239979237318039 147.359974354505539 156.719959706068039 146.640003651380539 159.359974354505539 147.599995106458664 160.799976795911789 144.719990223646164 160.559956043958664 144.479999989271164 159.119953602552414 147.119984120130539 156.719959706068039 146.159992665052414 155.999958485364914 147.119984120130539"/>
  <polyline class="cls-24" points="160.800007313489914 148.319965809583664 160.319996327161789 149.039967030286789 157.920002430677414 148.079975575208664 156.239979237318039 150.959980458021164 156.479999989271164 150.959980458021164 158.159992665052414 148.559986561536789 160.319996327161789 149.519978016614914 161.039997547864914 148.319965809583664"/>
  <polyline class="cls-24" points="155.759998768568039 148.319965809583664 155.279987782239914 149.039967030286789 152.879993885755539 148.079975575208664 151.199970692396164 150.959980458021164 151.439991444349289 150.959980458021164 153.119984120130539 148.559986561536789 155.519978016614914 149.519978016614914 155.999989002943039 148.319965809583664"/>
  <polyline class="cls-24" points="150.719990223646164 148.319965809583664 149.999989002943039 149.279987782239914 150.479969471693039 149.519978016614914 151.199970692396164 148.319965809583664"/>
  <polyline class="cls-24" points="161.279987782239914 147.599964588880539 161.999958485364914 146.399982899427414 161.759968250989914 146.159992665052414 161.039967030286789 147.359974354505539"/>
  <rect class="cls-16" x="106.319996327161789" y="130.319965809583664" width="29.040008544921875" height="34.79998779296875"/>
  <polyline class="cls-8" points="109.439991444349289 161.999958485364914 109.439991444349289 133.439960926771164 132.239979237318039 133.439960926771164 132.239979237318039 161.999958485364914 109.439991444349289 161.999958485364914"/>
  <path class="cls-24" d="M119.279987782239914,142.319965809583664l-1.920013427734375,2.4000244140625h-1.44000244140625l-.480010986328125.47998046875v2.6400146484375l.720001220703125.720001220703125h9.360015869140625l.720001220703125-.480010986328125v-2.639984130859375l-.720001220703125-.720001220703125h-1.20001220703125l-1.67999267578125-2.6400146484375h-3.600006103515625l-1.67999267578125,2.6400146484375M119.279987782239914,142.319965809583664h3.1199951171875l1.67999267578125,2.8800048828125h1.44000244140625-.239990234375l.47998046875.240020751953125v2.399993896484375l-.47998046875.47998046875h.239990234375-9.360015869140625.240020751953125l-.720001220703125-.47998046875h.239990234375v-2.399993896484375h-.239990234375l.47998046875-.240020751953125h1.44000244140625l1.680023193359375-2.8800048828125Z"/>
  <rect x="116.399982899427414" y="147.359943836927414" width="9.1199951171875" height=".480010986328125"/>
  <rect x="116.399982899427414" y="145.439960926771164" width="9.1199951171875" height=".480010986328125"/>
  <rect x="116.399982899427414" y="146.399952381849289" width="9.1199951171875" height=".480010986328125"/>
  <polyline class="cls-24" points="118.800007313489914 148.319965809583664 123.119984120130539 148.319965809583664 122.640003651380539 149.039967030286789 122.640003651380539 149.759968250989914 119.039997547864914 149.759968250989914 119.039997547864914 149.279987782239914"/>
  <path class="cls-24" d="M118.800007313489914,147.599964588880539h4.079986572265625c.959991455078125-.719970703125-.480010986328125-4.319976806640625-2.160003662109375-4.55999755859375-1.44000244140625.240020751953125-2.8800048828125,3.84002685546875-1.91998291015625,4.55999755859375"/>
  <path class="cls-24" d="M119.039997547864914,151.919971913099289s.239990234375,1.44000244140625,1.67999267578125,1.44000244140625c1.67999267578125,0,1.91998291015625-1.44000244140625,1.91998291015625-1.44000244140625v-1.67999267578125h-3.5999755859375"/>
  <rect class="cls-16" x="106.319996327161789" y="88.559956043958664" width="29.040008544921875" height="34.55999755859375"/>
  <polyline class="cls-7" points="109.679981678724289 119.759968250989914 109.679981678724289 91.919971913099289 131.999958485364914 91.919971913099289 131.999958485364914 119.759968250989914 109.679981678724289 119.759968250989914"/>
  <text class="cls-14" transform="translate(115.920032948254629 99.839863270522983)"><tspan x="0" y="0">AG</tspan></text>
  <polyline class="cls-24" points="115.679981678724289 110.879963368177414 123.359974354505539 110.879963368177414 123.359974354505539 106.079975575208664 122.639973133802414 106.079975575208664 118.319965809583664 109.919971913099289 117.119953602552414 109.919971913099289 116.399952381849289 109.679981678724289 115.679981678724289 109.679981678724289"/>
  <polyline class="cls-24" points="115.679981678724289 110.879963368177414 123.359974354505539 110.879963368177414 123.359974354505539 115.919971913099289 122.639973133802414 115.919971913099289 118.319965809583664 111.839985340833664 117.119953602552414 111.839985340833664 116.399952381849289 112.319965809583664 115.679981678724289 112.319965809583664"/>
  <rect x="123.599995106458664" y="110.639973133802414" width="2.399993896484375" height=".239990234375"/>
  <polyline class="cls-24" points="123.599995106458664 111.599964588880539 125.759968250989914 113.519978016614914 125.999989002943039 113.519978016614914"/>
  <polyline class="cls-24" points="123.599995106458664 109.919971913099289 125.999989002943039 107.999989002943039 125.759968250989914 107.759998768568039 123.599995106458664 109.679981678724289"/>
  <rect class="cls-16" x="106.319996327161789" y="46.799946278333664" width="29.040008544921875" height="34.560028076171875"/>
  <text class="cls-14" transform="translate(115.920032948254629 57.839863270522983)"><tspan x="0" y="0">GG</tspan></text>
  <polyline class="cls-7" points="109.679981678724289 77.999958485364914 109.679981678724289 50.159992665052414 131.999958485364914 50.159992665052414 131.999958485364914 77.999958485364914 109.679981678724289 77.999958485364914"/>
  <polyline class="cls-24" points="115.679981678724289 68.879917591810226 123.359974354505539 68.879917591810226 123.359974354505539 64.079960316419601 122.639973133802414 64.079960316419601 118.319965809583664 67.919926136732101 117.119953602552414 67.919926136732101 116.399952381849289 67.439945667982101 115.679981678724289 67.439945667982101"/>
  <polyline class="cls-24" points="115.679981678724289 68.879963368177414 123.359974354505539 68.879963368177414 123.359974354505539 73.919971913099289 122.639973133802414 73.919971913099289 118.319965809583664 69.839985340833664 117.119953602552414 69.839985340833664 116.399952381849289 70.319965809583664 115.679981678724289 70.319965809583664"/>
  <rect x="123.599995106458664" y="68.639973133802414" width="2.399993896484375" height=".239990234375"/>
  <polyline class="cls-24" points="123.599995106458664 69.599964588880539 125.759968250989914 71.519978016614914 125.999989002943039 71.279987782239914"/>
  <polyline class="cls-24" points="123.599995106458664 67.679951161146164 125.999989002943039 65.999958485364914 125.759968250989914 65.759968250989914"/>
  <rect class="cls-16" x="176.399982899427414" y="88.559956043958664" width="29.040008544921875" height="34.55999755859375"/>
  <text class="cls-14" transform="translate(184.080189198255539 100.319843739272983)"><tspan x="0" y="0">PRE</tspan></text>
  <polyline class="cls-7" points="179.759998768568039 119.759968250989914 179.759998768568039 91.919971913099289 202.079975575208664 91.919971913099289 202.079975575208664 119.759968250989914 179.759998768568039 119.759968250989914"/>
  <rect x="187.679981678724289" y="113.519978016614914" width="1.20001220703125" height=".239990234375"/>
  <polyline class="cls-24" points="187.920002430677414 113.039967030286789 188.879993885755539 111.599995106458664 188.639973133802414 111.599995106458664 187.679981678724289 113.039967030286789"/>
  <polyline class="cls-24" points="187.920002430677414 113.999958485364914 188.879993885755539 115.439960926771164 188.639973133802414 115.439960926771164 187.679981678724289 114.239979237318039"/>
  <rect x="192.959980458021164" y="113.519978016614914" width="1.20001220703125" height=".239990234375"/>
  <line x1="194.159992665052414" y1="113.039967030286789" x2="193.199970692396164" y2="111.599995106458664"/>
  <polyline class="cls-24" points="194.159992665052414 113.999958485364914 193.199970692396164 115.439960926771164 194.159992665052414 114.239979237318039"/>
  <path class="cls-24" d="M185.279987782239914,111.839954823255539h-.96002197265625l-.720001220703125.480010986328125v2.8800048828125s.720001220703125.720001220703125,1.680023193359375.720001220703125c.959991455078125,0,1.67999267578125-.720001220703125,1.67999267578125-.720001220703125v-5.279998779296875h-1.67999267578125"/>
  <path class="cls-24" d="M196.559986561536789,111.839954823255539h.959991455078125l.720001220703125.480010986328125v2.8800048828125s-.720001220703125.720001220703125-1.67999267578125.720001220703125c-.96002197265625,0-1.680023193359375-.720001220703125-1.680023193359375-.720001220703125v-5.279998779296875h1.680023193359375"/>
  <path class="cls-24" d="M196.319996327161789,105.960270375013351l-2.6400146484375-1.439971923828125h-6l-2.399993896484375,1.439971923828125v4.08001708984375h1.67999267578125v-3.1199951171875s-.480010986328125-1.67999267578125,3.839996337890625-1.67999267578125,4.08001708984375,1.67999267578125,4.08001708984375,1.67999267578125v3.1199951171875-3.1199951171875,3.1199951171875h1.44000244140625v-4.08001708984375"/>
  <rect class="cls-16" x="141.360004872083664" y="88.559956043958664" width="29.040008544921875" height="34.55999755859375"/>
  <polyline class="cls-7" points="144.719990223646164 119.759968250989914 144.719990223646164 91.919971913099289 167.039967030286789 91.919971913099289 167.039967030286789 119.759968250989914 144.719990223646164 119.759968250989914"/>
  <rect x="152.640003651380539" y="113.519978016614914" width="1.20001220703125" height=".239990234375"/>
  <polyline class="cls-24" points="152.879993885755539 113.039967030286789 153.839985340833664 111.599995106458664 153.599964588880539 111.599995106458664 152.639973133802414 113.039967030286789"/>
  <polyline class="cls-24" points="152.879993885755539 113.999958485364914 153.839985340833664 115.439960926771164 153.599964588880539 115.439960926771164 152.639973133802414 114.239979237318039"/>
  <rect x="157.920002430677414" y="113.519978016614914" width="1.20001220703125" height=".239990234375"/>
  <polyline class="cls-24" points="159.119984120130539 113.039967030286789 157.919971913099289 111.599995106458664 158.159962147474289 111.599995106458664"/>
  <polyline class="cls-24" points="159.119984120130539 113.999958485364914 157.919971913099289 115.439960926771164 158.159962147474289 115.439960926771164 159.119984120130539 114.239979237318039"/>
  <path class="cls-24" d="M150.239979237318039,111.839954823255539h-.96002197265625l-.720001220703125.480010986328125v2.8800048828125s.720001220703125.720001220703125,1.680023193359375.720001220703125c.959991455078125,0,1.439971923828125-.720001220703125,1.439971923828125-.720001220703125v-5.279998779296875h-1.439971923828125"/>
  <path class="cls-24" d="M161.520008534193039,111.839954823255539h.959991455078125l.720001220703125.480010986328125v2.8800048828125s-.720001220703125.720001220703125-1.67999267578125.720001220703125c-.96002197265625,0-1.680023193359375-.720001220703125-1.680023193359375-.720001220703125v-5.279998779296875h1.680023193359375"/>
  <path class="cls-24" d="M161.294693664593069,105.839954823255539l-2.6400146484375-1.439971923828125h-6l-2.399993896484375,1.439971923828125v4.08001708984375h1.44000244140625v-3.1199951171875s-.240020751953125-1.67999267578125,4.079986572265625-1.67999267578125,4.08001708984375,1.67999267578125,4.08001708984375,1.67999267578125v3.1199951171875-3.1199951171875,3.1199951171875h1.44000244140625v-4.08001708984375"/>
  <rect class="cls-18" x="176.399982899427414" y="46.799946278333664" width="29.040008544921875" height="34.560028076171875"/>
  <polyline class="cls-7" points="179.759998768568039 77.999958485364914 179.759998768568039 50.159992665052414 202.079975575208664 50.159992665052414 202.079975575208664 77.999958485364914 179.759998768568039 77.999958485364914"/>
  <polyline class="cls-24" points="187.920002430677414 71.519947499036789 188.879993885755539 70.079975575208664 188.639973133802414 69.839954823255539 187.679981678724289 71.279957264661789"/>
  <polyline class="cls-24" points="187.920002430677414 72.239948719739914 188.879993885755539 73.679951161146164 188.639973133802414 73.919971913099289 187.679981678724289 72.479969471693039"/>
  <rect x="192.959980458021164" y="71.759968250989914" width="1.20001220703125" height=".239990234375"/>
  <rect x="187.679981678724289" y="71.759968250989914" width="1.20001220703125" height=".239990234375"/>
  <polyline class="cls-24" points="194.159992665052414 71.519947499036789 193.199970692396164 70.079975575208664 193.199970692396164 69.839954823255539 194.159992665052414 71.279957264661789"/>
  <polyline class="cls-24" points="194.159992665052414 72.239948719739914 193.199970692396164 73.679951161146164 193.199970692396164 73.919971913099289 194.159992665052414 72.479969471693039"/>
  <path class="cls-24" d="M185.279987782239914,70.079975575208664h-.96002197265625l-.720001220703125.720001220703125v2.6400146484375s.720001220703125.959991455078125,1.680023193359375.959991455078125c.959991455078125,0,1.67999267578125-.959991455078125,1.67999267578125-.959991455078125v-5.279998779296875h-1.67999267578125"/>
  <path class="cls-24" d="M196.559986561536789,70.079975575208664h.959991455078125l.720001220703125.720001220703125v2.6400146484375s-.720001220703125.959991455078125-1.67999267578125.959991455078125c-.96002197265625,0-1.680023193359375-.959991455078125-1.680023193359375-.959991455078125v-5.279998779296875h1.680023193359375"/>
  <path class="cls-24" d="M196.319996327161789,64.319965809583664l-2.6400146484375-1.67999267578125h-6l-2.399993896484375,1.67999267578125v3.84002685546875h1.67999267578125v-3.1199951171875s-.480010986328125-1.44000244140625,3.839996337890625-1.44000244140625,4.08001708984375,1.44000244140625,4.08001708984375,1.44000244140625v3.1199951171875-3.1199951171875,3.1199951171875h1.44000244140625v-3.84002685546875"/>
  <rect class="cls-16" x="141.360004872083664" y="46.799946278333664" width="29.040008544921875" height="34.560028076171875"/>
  <text class="cls-14" transform="translate(149.040150135755539 57.839863270522983)"><tspan x="0" y="0">PRE</tspan></text>
  <polyline class="cls-7" points="144.719990223646164 77.999958485364914 144.719990223646164 50.159992665052414 167.039967030286789 50.159992665052414 167.039967030286789 77.999958485364914 144.719990223646164 77.999958485364914"/>
  <rect x="152.640003651380539" y="71.759968250989914" width="1.20001220703125" height=".239990234375"/>
  <polyline class="cls-24" points="152.879993885755539 71.519947499036789 153.839985340833664 70.079975575208664 153.599964588880539 69.839954823255539 152.639973133802414 71.279957264661789"/>
  <polyline class="cls-24" points="152.879993885755539 72.239948719739914 153.839985340833664 73.679951161146164 153.599964588880539 73.919971913099289 152.639973133802414 72.479969471693039"/>
  <rect x="157.920002430677414" y="71.759968250989914" width="1.20001220703125" height=".239990234375"/>
  <polyline class="cls-24" points="159.119984120130539 71.519947499036789 157.919971913099289 70.079975575208664 158.159962147474289 69.839954823255539 159.119984120130539 71.279957264661789"/>
  <polyline class="cls-24" points="159.119984120130539 72.239948719739914 157.919971913099289 73.679951161146164 158.159962147474289 73.919971913099289 159.119984120130539 72.479969471693039"/>
  <path class="cls-24" d="M150.239979237318039,70.079975575208664h-.96002197265625l-.720001220703125.720001220703125v2.6400146484375s.720001220703125.959991455078125,1.680023193359375.959991455078125c.959991455078125,0,1.439971923828125-.959991455078125,1.439971923828125-.959991455078125v-5.279998779296875h-1.439971923828125"/>
  <path class="cls-24" d="M161.520008534193039,70.079975575208664h.959991455078125l.720001220703125.720001220703125v2.6400146484375s-.720001220703125.959991455078125-1.67999267578125.959991455078125c-.96002197265625,0-1.680023193359375-.959991455078125-1.680023193359375-.959991455078125v-5.279998779296875h1.680023193359375"/>
  <path class="cls-24" d="M161.279987782239914,64.319965809583664l-2.6400146484375-1.67999267578125h-6l-2.399993896484375,1.67999267578125v3.84002685546875h1.44000244140625v-3.1199951171875s-.240020751953125-1.44000244140625,4.079986572265625-1.44000244140625,4.08001708984375,1.44000244140625,4.08001708984375,1.44000244140625v3.1199951171875-3.1199951171875,3.1199951171875h1.44000244140625v-3.84002685546875"/>
  <path class="cls-3" d="M296.159992665052414,198.959949940443039c.959991455078125,0,1.67999267578125-.959991455078125,1.67999267578125-1.91998291015625s-.720001220703125-1.67999267578125-1.67999267578125-1.67999267578125c-.96002197265625,0-1.920013427734375.720001220703125-1.920013427734375,1.67999267578125s.959991455078125,1.91998291015625,1.920013427734375,1.91998291015625"/>
  <line class="cls-3" x1="292.559986561536789" y1="197.039936512708664" x2="294.239979237318039" y2="197.039936512708664"/>
  <line class="cls-3" x1="296.159992665052414" y1="200.879932850599289" x2="296.159992665052414" y2="198.959949940443039"/>
  <line class="cls-3" x1="296.159992665052414" y1="193.919941395521164" x2="296.159992665052414" y2="191.519947499036789"/>
  <line class="cls-3" x1="297.360004872083664" y1="194.399952381849289" x2="298.319996327161789" y2="192.239979237318039"/>
  <line class="cls-3" x1="294.000019520521164" y1="192.239948719739914" x2="295.200001209974289" y2="194.399952381849289"/>
  <line class="cls-3" x1="297.600025624036789" y1="198.479938954114914" x2="298.800007313489914" y2="199.919941395521164"/>
  <line class="cls-3" x1="293.520039051771164" y1="199.919941395521164" x2="294.720020741224289" y2="198.479969471693039"/>
  <line class="cls-3" x1="298.080036610364914" y1="197.039936512708664" x2="299.760029286146164" y2="197.039936512708664"/>
  <path class="cls-3" d="M261.360035389661789,198.959949940443039c.959991455078125,0,1.91998291015625-.959991455078125,1.91998291015625-1.91998291015625s-.959991455078125-1.67999267578125-1.91998291015625-1.67999267578125c-.96002197265625,0-1.680023193359375.720001220703125-1.680023193359375,1.67999267578125s.720001220703125,1.91998291015625,1.680023193359375,1.91998291015625"/>
  <line class="cls-3" x1="257.760029286146164" y1="197.039936512708664" x2="259.680012196302414" y2="197.039936512708664"/>
  <line class="cls-3" x1="261.360035389661789" y1="200.879932850599289" x2="261.360035389661789" y2="198.959949940443039"/>
  <line class="cls-3" x1="261.360035389661789" y1="193.919941395521164" x2="261.360035389661789" y2="191.519947499036789"/>
  <line class="cls-3" x1="262.800037831068039" y1="194.399952381849289" x2="263.760029286146164" y2="192.239979237318039"/>
  <line class="cls-3" x1="259.440052479505539" y1="192.239948719739914" x2="260.400043934583664" y2="194.399952381849289"/>
  <line class="cls-3" x1="263.040058583021164" y1="198.479938954114914" x2="264.240040272474289" y2="199.919941395521164"/>
  <line class="cls-3" x1="258.720051258802414" y1="199.919941395521164" x2="260.160023182630539" y2="198.479969471693039"/>
  <line class="cls-3" x1="263.280048817396164" y1="197.039936512708664" x2="265.200031727552414" y2="197.039936512708664"/>
</svg>