<?xml version="1.0" encoding="UTF-8"?>
<svg id="Layer_1" data-name="Layer 1" xmlns="http://www.w3.org/2000/svg" viewBox="0 0 102.960006713867188 181.800002455711365">
  <defs>
    <style>
      .cls-1 {
        font-size: 14.800000190734863px;
      }

      .cls-1, .cls-2, .cls-3 {
        font-family: Verdana, Verdana;
      }

      .cls-4 {
        stroke-width: .720000028610229px;
      }

      .cls-4, .cls-5, .cls-6 {
        fill: none;
        stroke-linecap: round;
        stroke-linejoin: round;
      }

      .cls-4, .cls-6 {
        stroke: #000;
      }

      .cls-2 {
        font-size: 8.399999618530273px;
      }

      .cls-7 {
        fill: #ff8700;
      }

      .cls-8 {
        fill: #fff;
      }

      .cls-9 {
        fill: #94ff94;
      }

      .cls-10 {
        fill: #404040;
      }

      .cls-10, .cls-11 {
        fill-rule: evenodd;
      }

      .cls-12 {
        fill: #ccc;
      }

      .cls-5 {
        stroke: #fff;
      }

      .cls-5, .cls-6 {
        stroke-width: .239999994635582px;
      }

      .cls-13 {
        letter-spacing: 2.100016371409842em;
      }

      .cls-3 {
        font-size: 3.200000286102295px;
      }

      .cls-14 {
        letter-spacing: 2.328985410825884em;
      }

      .cls-15 {
        fill: #994d38;
      }

      .cls-16 {
        fill: #f0ff00;
      }
    </style>
  </defs>
  <path class="cls-10" d="M95.279998779296875.120009779930115h1.439987182617188q6.240005493164062,0,6.240005493164062,6.24005126953125v168.9599609375V6.360061049461365v168.9599609375q0,6.47998046875-6.240005493164062,6.47998046875H6.479995727539062h90.239990234375H6.479995727539062q-6.479995727539062,0-6.479995727539062-6.47998046875V6.360061049461365Q0,.120009779930115,6.479995727539062.120009779930115h.960006713867188v2.8800048828125h3.1199951171875V.360061049461365h2.160003662109375v2.63995361328125h3.1199951171875V.360061049461365h2.160003662109375v2.63995361328125h3.1199951171875V.360061049461365h2.160003662109375v2.63995361328125h3.1199951171875V.360061049461365h3.360000610351562v2.63995361328125h1.919998168945312V.360061049461365h3.360000610351562v2.63995361328125h1.919998168945312V.360061049461365h3.360000610351562v2.63995361328125h2.160003662109375V.360061049461365h3.1199951171875v2.63995361328125h2.160003662109375V.360061049461365h3.1199951171875v2.63995361328125h2.160003662109375V.360061049461365h3.1199951171875v2.63995361328125h2.160003662109375V.360061049461365h3.1199951171875v2.63995361328125h2.160003662109375V.360061049461365h3.1199951171875v2.63995361328125h2.160003662109375V.360061049461365h3.1199951171875v2.63995361328125h3.120010375976562V.360061049461365h2.160003662109375v2.63995361328125h3.1199951171875V.360061049461365h2.160003662109375v2.63995361328125h3.1199951171875V.360061049461365h2.160003662109375v2.63995361328125h3.1199951171875V.360061049461365h2.160003662109375v2.63995361328125h2.160003662109375"/>
  <rect class="cls-12" x="6.960006713867188" y="151.80003297328949" width="16.080001831054688" height="15.839996337890625"/>
  <rect class="cls-12" x="31.44000244140625" y="151.80003297328949" width="15.839996337890625" height="15.839996337890625"/>
  <rect class="cls-12" x="55.67999267578125" y="151.80003297328949" width="16.080001831054688" height="15.839996337890625"/>
  <rect class="cls-12" x="6.960006713867188" y="127.320021986961365" width="16.080001831054688" height="16.079986572265625"/>
  <rect class="cls-12" x="31.44000244140625" y="127.320021986961365" width="15.839996337890625" height="16.079986572265625"/>
  <rect class="cls-12" x="55.67999267578125" y="127.320021986961365" width="16.080001831054688" height="16.079986572265625"/>
  <rect class="cls-12" x="6.960006713867188" y="103.080031752586365" width="16.080001831054688" height="15.839996337890625"/>
  <rect class="cls-12" x="31.44000244140625" y="103.080031752586365" width="15.839996337890625" height="15.839996337890625"/>
  <rect class="cls-12" x="55.67999267578125" y="103.080031752586365" width="16.080001831054688" height="15.839996337890625"/>
  <rect class="cls-12" x="6.960006713867188" y="77.640029311180115" width="16.080001831054688" height="15.839996337890625"/>
  <rect class="cls-12" x="31.44000244140625" y="77.640029311180115" width="15.839996337890625" height="15.839996337890625"/>
  <rect class="cls-12" x="55.67999267578125" y="77.640029311180115" width="16.080001831054688" height="15.839996337890625"/>
  <rect class="cls-12" x="82.319992065429688" y="127.320021986961365" width="13.67999267578125" height="40.32000732421875"/>
  <rect class="cls-12" x="82.319992065429688" y="77.63999879360199" width="13.67999267578125" height="40.32000732421875"/>
  <rect class="cls-16" x="6.960006713867188" y="40.680007338523865" width="24.479995727539062" height="24.240020751953125"/>
  <rect class="cls-7" x="71.759994506835938" y="40.680007338523865" width="24.240005493164062" height="24.240020751953125"/>
  <text class="cls-2" transform="translate(12.479843139647528 87.479995131494434)"><tspan class="cls-14" x="0" y="0">12</tspan><tspan x="49.8076171875" y="0">3</tspan></text>
  <text class="cls-2" transform="translate(12.479843139647528 112.920424818994434)"><tspan class="cls-14" x="0" y="0">45</tspan><tspan x="49.8076171875" y="0">6</tspan></text>
  <text class="cls-2" transform="translate(12.479843139647528 137.160170912744434)"><tspan class="cls-14" x="0" y="0">78</tspan><tspan x="49.8076171875" y="0">9</tspan></text>
  <text class="cls-1" transform="translate(9.119979858397528 166.680190443994434)"><tspan x="0" y="0">*</tspan></text>
  <text class="cls-2" transform="translate(36.720077514647528 161.399917006494434)"><tspan class="cls-13" x="0" y="0">0</tspan><tspan x="22.98046875" y="0">#</tspan></text>
  <text class="cls-3" transform="translate(85.680038452148438 97.799819350242615)"><tspan x="0" y="0">DISP</tspan></text>
  <text class="cls-3" transform="translate(85.920272827148438 148.200209975242615)"><tspan x="0" y="0">KEY</tspan></text>
  <text class="cls-2" transform="translate(75.119979858397528 55.799819350244434)"><tspan x="0" y="0">RLS</tspan></text>
  <rect x=".479995727539062" y="9.000014662742615" width="102.480010986328125" height="27.3599853515625"/>
  <rect class="cls-15" x="1.67999267578125" y="12.120009779930115" width="4.800003051757812" height="9.5999755859375"/>
  <rect class="cls-15" x="8.160003662109375" y="12.120009779930115" width="4.55999755859375" height="9.5999755859375"/>
  <rect class="cls-15" x="14.399993896484375" y="12.120009779930115" width="4.55999755859375" height="9.5999755859375"/>
  <rect class="cls-15" x="20.639999389648438" y="12.120009779930115" width="4.800003051757812" height="9.5999755859375"/>
  <rect class="cls-15" x="26.8800048828125" y="12.120009779930115" width="4.800003051757812" height="9.5999755859375"/>
  <rect class="cls-15" x="33.1199951171875" y="12.120009779930115" width="4.800003051757812" height="9.5999755859375"/>
  <rect class="cls-15" x="39.360000610351562" y="12.120009779930115" width="4.800003051757812" height="9.5999755859375"/>
  <rect class="cls-15" x="45.839996337890625" y="12.120009779930115" width="4.55999755859375" height="9.5999755859375"/>
  <rect class="cls-15" x="52.080001831054688" y="12.120009779930115" width="4.800003051757812" height="9.5999755859375"/>
  <rect class="cls-15" x="58.319992065429688" y="12.120009779930115" width="4.800003051757812" height="9.5999755859375"/>
  <rect class="cls-15" x="64.55999755859375" y="12.120009779930115" width="4.800003051757812" height="9.5999755859375"/>
  <rect class="cls-15" x="70.800003051757812" y="12.120009779930115" width="4.800003051757812" height="9.5999755859375"/>
  <rect class="cls-15" x="77.039993286132812" y="12.120009779930115" width="4.800003051757812" height="9.5999755859375"/>
  <rect class="cls-15" x="83.520004272460938" y="12.120009779930115" width="4.55999755859375" height="9.5999755859375"/>
  <rect class="cls-15" x="89.759994506835938" y="12.120009779930115" width="4.800003051757812" height="9.5999755859375"/>
  <rect class="cls-15" x="96" y="12.120009779930115" width="4.800003051757812" height="9.5999755859375"/>
  <rect class="cls-15" x="1.67999267578125" y="23.160048842430115" width="4.800003051757812" height="9.5999755859375"/>
  <rect class="cls-15" x="8.160003662109375" y="23.160048842430115" width="4.55999755859375" height="9.5999755859375"/>
  <rect class="cls-15" x="14.399993896484375" y="23.160048842430115" width="4.55999755859375" height="9.5999755859375"/>
  <rect class="cls-15" x="20.639999389648438" y="23.160048842430115" width="4.800003051757812" height="9.5999755859375"/>
  <rect class="cls-15" x="26.8800048828125" y="23.160048842430115" width="4.800003051757812" height="9.5999755859375"/>
  <rect class="cls-15" x="33.1199951171875" y="23.160048842430115" width="4.800003051757812" height="9.5999755859375"/>
  <rect class="cls-15" x="39.360000610351562" y="23.160048842430115" width="4.800003051757812" height="9.5999755859375"/>
  <rect class="cls-15" x="45.839996337890625" y="23.160048842430115" width="4.55999755859375" height="9.5999755859375"/>
  <rect class="cls-15" x="52.080001831054688" y="23.160048842430115" width="4.800003051757812" height="9.5999755859375"/>
  <rect class="cls-15" x="58.319992065429688" y="23.160048842430115" width="4.800003051757812" height="9.5999755859375"/>
  <rect class="cls-15" x="64.55999755859375" y="23.160048842430115" width="4.800003051757812" height="9.5999755859375"/>
  <rect class="cls-15" x="70.800003051757812" y="23.160048842430115" width="4.800003051757812" height="9.5999755859375"/>
  <rect class="cls-15" x="77.039993286132812" y="23.160048842430115" width="4.800003051757812" height="9.5999755859375"/>
  <rect class="cls-15" x="83.520004272460938" y="23.160048842430115" width="4.55999755859375" height="9.5999755859375"/>
  <rect class="cls-15" x="89.759994506835938" y="23.160048842430115" width="4.800003051757812" height="9.5999755859375"/>
  <rect class="cls-15" x="96" y="23.160048842430115" width="4.800003051757812" height="9.5999755859375"/>
  <path class="cls-6" d="M90.720001220703125,93.48002564907074c0,.480010986328125-.720001220703125,1.20001220703125-1.44000244140625,1.20001220703125"/>
  <path class="cls-6" d="M90.720001220703125,91.080031752586365c.239990234375-2.15997314453125.479995727539062-2.639984130859375,1.199996948242188-3.3599853515625"/>
  <line class="cls-6" x1="91.919998168945312" y1="87.960036635398865" x2="91.919998168945312" y2="87.720046401023865"/>
  <path class="cls-6" d="M91.919998168945312,87.960036635398865c1.199996948242188-1.439971923828125,1.199996948242188-4.079986572265625,0-5.519989013671875-1.20001220703125-1.67999267578125-3.600006103515625-1.91998291015625-5.040008544921875-.720001220703125-1.44000244140625,1.44000244140625-1.67999267578125,4.55999755859375-.479995727539062,6"/>
  <path class="cls-6" d="M86.399993896484375,87.720046401023865c.719985961914062.720001220703125.959991455078125,1.20001220703125,1.439987182617188,3.360015869140625"/>
  <rect class="cls-8" x="87.839996337890625" y="90.60002076625824" width="2.8800048828125" height="2.8800048828125"/>
  <path class="cls-6" d="M85.67999267578125,86.28001344203949,92.8800048828125,85.08000123500824h1.67999267578125M92.639999389648438,87.000014662742615l.720001220703125.239990234375M92.8800048828125,86.04002320766449l.720001220703125.239990234375M92.8800048828125,84.120009779930115l.959991455078125-.239990234375M91.919998168945312,82.200026869773865l.720001220703125-.720001220703125M92.639999389648438,83.16001832485199l1.199996948242188-.480010986328125M90.960006713867188,81.240004897117615l.239990234375-.959991455078125M83.759994506835938,85.08000123500824h1.919998168945312M84.960006713867188,87.240004897117615l.719985961914062-.47998046875M84.720001220703125,86.28001344203949l.959991455078125-.239990234375M84.479995727539062,83.880019545555115l1.199996948242188.239990234375M85.67999267578125,81.48002564907074l.720001220703125.720001220703125M84.479995727539062,82.680007338523865l1.199996948242188.480010986328125M89.279998779296875,81.000014662742615v-2.160003662109375M89.039993286132812,90.60002076625824v-5.52001953125M87.839996337890625,92.52000367641449h2.8800048828125M87.839996337890625,91.560012221336365h2.8800048828125M87.839996337890625,91.560012221336365h.960006713867188M90.720001220703125,93.48002564907074h-2.8800048828125v-2.8800048828125h2.8800048828125v2.8800048828125Z"/>
  <rect class="cls-9" x="39.839996337890625" y="40.680007338523865" width="24.479995727539062" height="24.240020751953125"/>
  <text class="cls-2" transform="translate(43.439804077147528 55.799819350244434)"><tspan x="0" y="0">INIT</tspan></text>
  <path class="cls-4" d="M7.44000244140625.360000014305115v2.6400146484375h3.1199951171875V.360000014305115h2.160003662109375v2.6400146484375h3.1199951171875V.360000014305115h2.160003662109375v2.6400146484375h3.1199951171875V.360000014305115h2.160003662109375v2.6400146484375h3.1199951171875V.360000014305115h3.360000610351562v2.6400146484375h1.919998168945312V.360000014305115h3.360000610351562v2.6400146484375h1.919998168945312V.360000014305115h3.360000610351562v2.6400146484375h2.160003662109375V.360000014305115h3.1199951171875v2.6400146484375h2.160003662109375V.360000014305115h3.1199951171875v2.6400146484375h2.160003662109375V.360000014305115h3.120010375976562v2.6400146484375h2.159988403320312V.360000014305115h3.120010375976562v2.6400146484375h2.159988403320312V.360000014305115h3.120010375976562v2.6400146484375h2.159988403320312V.360000014305115h3.120010375976562v2.6400146484375h3.1199951171875V.360000014305115h2.160003662109375v2.6400146484375h3.1199951171875V.360000014305115h2.160003662109375v2.6400146484375h3.1199951171875V.360000014305115h2.160003662109375v2.6400146484375h3.1199951171875V.360000014305115h2.160003662109375v2.6400146484375h2.160003662109375V.360000014305115"/>
  <path class="cls-11" d="M17.759994506835938,163.560012221336365v-5.279998779296875h-.960006713867188s.240005493164062-.720001220703125.479995727539062-2.15997314453125c.240005493164062-1.44000244140625.480010986328125-2.160003662109375.480010986328125-2.160003662109375,0,0,.479995727539062.720001220703125,1.199996948242188,2.160003662109375.720001220703125,1.439971923828125.959991455078125,2.15997314453125.959991455078125,2.15997314453125h-2.159988403320312v5.279998779296875Z"/>
  <path class="cls-6" d="M17.759994506835938,163.560012221336365v-5.279998779296875h-.960006713867188s.240005493164062-.720001220703125.479995727539062-2.15997314453125c.240005493164062-1.44000244140625.480010986328125-2.160003662109375.480010986328125-2.160003662109375,0,0,.479995727539062.720001220703125,1.199996948242188,2.160003662109375.720001220703125,1.439971923828125.959991455078125,2.15997314453125.959991455078125,2.15997314453125h-2.159988403320312v5.279998779296875Z"/>
  <polygon class="cls-11" points="9.360000610351562 51.960036635398865 17.759994506835938 47.160048842430115 17.759994506835938 50.760085463523865 28.319992065429688 50.760085463523865 28.319992065429688 53.880080580711365 17.759994506835938 53.880080580711365 17.759994506835938 57.720046401023865 9.360000610351562 51.960036635398865"/>
  <polygon class="cls-6" points="9.360000610351562 51.960036635398865 17.759994506835938 47.160048842430115 17.759994506835938 50.760085463523865 28.319992065429688 50.760085463523865 28.319992065429688 53.880080580711365 17.759994506835938 53.880080580711365 17.759994506835938 57.720046401023865 9.360000610351562 51.960036635398865"/>
  <path class="cls-6" d="M90.720001220703125,115.560012221336365c0,.480010986328125-.720001220703125,1.20001220703125-1.44000244140625,1.20001220703125-.960006713867188,0-1.44000244140625-.720001220703125-1.44000244140625-1.20001220703125"/>
  <path class="cls-6" d="M90.720001220703125,113.16001832485199c.239990234375-2.15997314453125.479995727539062-2.639984130859375,1.199996948242188-3.3599853515625"/>
  <line class="cls-6" x1="91.919998168945312" y1="110.04002320766449" x2="91.919998168945312" y2="109.80003297328949"/>
  <path class="cls-6" d="M91.919998168945312,110.04002320766449c1.199996948242188-1.439971923828125,1.199996948242188-4.079986572265625,0-5.519989013671875-1.20001220703125-1.67999267578125-3.600006103515625-1.91998291015625-5.040008544921875-.480010986328125-1.44000244140625,1.20001220703125-1.67999267578125,4.32000732421875-.479995727539062,6v-.239990234375c.720001220703125.720001220703125.959991455078125,1.20001220703125,1.44000244140625,3.360015869140625"/>
  <rect class="cls-8" x="87.839996337890625" y="112.680007338523865" width="2.8800048828125" height="2.8800048828125"/>
  <path class="cls-6" d="M85.67999267578125,108.360000014305115,92.8800048828125,107.40000855922699h1.67999267578125M92.639999389648438,109.08000123500824l.720001220703125.240020751953125M92.8800048828125,108.120009779930115l.720001220703125.239990234375M92.8800048828125,106.440017104148865l.959991455078125-.239990234375M91.919998168945312,104.28001344203949l.720001220703125-.720001220703125M92.639999389648438,105.240004897117615l1.199996948242188-.47998046875M90.960006713867188,103.320021986961365l.239990234375-.720001220703125M83.759994506835938,107.40000855922699h1.919998168945312M84.960006713867188,109.320021986961365l.719985961914062-.480010986328125M84.720001220703125,108.360000014305115l.959991455078125-.239990234375M84.479995727539062,106.200026869773865l1.199996948242188.239990234375M85.67999267578125,103.560012221336365l.720001220703125.720001220703125M84.479995727539062,104.760024428367615l1.199996948242188.47998046875M89.279998779296875,103.08000123500824v-2.15997314453125M87.839996337890625,114.84001100063324h2.8800048828125M87.839996337890625,113.640029311180115h2.8800048828125M87.839996337890625,113.640029311180115h.960006713867188M90.720001220703125,115.560012221336365h-2.8800048828125v-2.8800048828125h2.8800048828125v2.8800048828125Z"/>
  <path class="cls-10" d="M91.199996948242188,109.560012221336365c.479995727539062-.719970703125.719985961914062-1.439971923828125.719985961914062-2.15997314453125,0-1.920013427734375-1.199996948242188-3.360015869140625-2.639999389648438-3.360015869140625-1.439987182617188,0-2.639999389648438,1.44000244140625-2.639999389648438,3.360015869140625,0,.720001220703125.240005493164062,1.67999267578125.480010986328125,2.15997314453125,0,.240020751953125,1.919998168945312-1.91998291015625,1.919998168945312-1.91998291015625"/>
  <path class="cls-5" d="M91.199996948242188,109.560012221336365c.479995727539062-.719970703125.719985961914062-1.439971923828125.719985961914062-2.15997314453125,0-1.920013427734375-1.199996948242188-3.360015869140625-2.639999389648438-3.360015869140625-1.439987182617188,0-2.639999389648438,1.44000244140625-2.639999389648438,3.360015869140625,0,.720001220703125.240005493164062,1.67999267578125.480010986328125,2.15997314453125,0,.240020751953125,1.919998168945312-1.91998291015625,1.919998168945312-1.91998291015625"/>
  <line class="cls-6" x1="86.8800048828125" y1="106.440017104148865" x2="89.039993286132812" y2="104.520034193992615"/>
  <line class="cls-6" x1="86.8800048828125" y1="107.40000855922699" x2="90" y2="104.520034193992615"/>
  <line class="cls-6" x1="86.8800048828125" y1="108.60002076625824" x2="90.479995727539062" y2="105.00004518032074"/>
  <line class="cls-6" x1="87.360000610351562" y1="109.320021986961365" x2="90.959991455078125" y2="105.48002564907074"/>
  <line class="cls-6" x1="89.759994506835938" y1="107.880019545555115" x2="91.199981689453125" y2="106.44004762172699"/>
  <line class="cls-6" x1="90.239990234375" y1="108.60002076625824" x2="91.439987182617188" y2="107.400039076805115"/>
  <line class="cls-6" x1="90.959991455078125" y1="109.080031752586365" x2="91.439987182617188" y2="108.600051283836365"/>
  <line class="cls-6" x1="89.039993286132812" y1="112.68003785610199" x2="89.039993286132812" y2="107.88005006313324"/>
  <path class="cls-6" d="M90.719985961914062,143.400039076805115c0,.480010986328125-.720001220703125,1.20001220703125-1.44000244140625,1.20001220703125-.960006713867188,0-1.44000244140625-.720001220703125-1.44000244140625-1.20001220703125"/>
  <path class="cls-6" d="M90.719985961914062,140.760024428367615c.239990234375-1.91998291015625.479995727539062-2.639984130859375,1.199996948242188-3.1199951171875"/>
  <line class="cls-6" x1="91.91998291015625" y1="137.880019545555115" x2="91.91998291015625" y2="137.640029311180115"/>
  <path class="cls-6" d="M91.91998291015625,137.880019545555115c1.199996948242188-1.439971923828125,1.199996948242188-4.079986572265625,0-5.759979248046875-1.20001220703125-1.44000244140625-3.600006103515625-1.67999267578125-5.040008544921875-.480010986328125-1.44000244140625,1.44000244140625-1.67999267578125,4.32000732421875-.479995727539062,6"/>
  <path class="cls-6" d="M86.399978637695312,137.640029311180115c.719985961914062.480010986328125.959991455078125,1.20001220703125,1.439987182617188,3.120025634765625"/>
  <rect class="cls-8" x="87.839996337890625" y="140.28001344203949" width="2.8800048828125" height="3.1199951171875"/>
  <path class="cls-6" d="M86.399993896484375,159.72001588344574c.720001220703125.720001220703125.960006713867188,1.20001220703125,1.44000244140625,3.3599853515625M86.8800048828125,153.72001588344574c-1.44000244140625,1.44000244140625-1.680007934570312,4.55999755859375-.480010986328125,6M91.919998168945312,154.440017104148865c-1.199996948242188-1.67999267578125-3.600006103515625-1.920013427734375-5.039993286132812-.720001220703125M91.919998168945312,159.96000611782074c1.199996948242188-1.44000244140625,1.199996948242188-4.079986572265625,0-5.519989013671875M91.919998168945312,159.96000611782074v-.239990234375M90.720001220703125,163.08000123500824c.240005493164062-2.15997314453125.479995727539062-2.639984130859375,1.199996948242188-3.3599853515625M89.279998779296875,166.680007338523865c-.960006713867188,0-1.44000244140625-.720001220703125-1.44000244140625-1.199981689453125M90.720001220703125,165.48002564907074c0,.47998046875-.720001220703125,1.199981689453125-1.44000244140625,1.199981689453125M92.8800048828125,135.000014662742615h1.67999267578125M92.639999389648438,136.680007338523865l.720001220703125.480010986328125M92.8800048828125,135.96000611782074l.720001220703125.240020751953125M92.8800048828125,134.04002320766449l.959991455078125-.240020751953125M91.919998168945312,131.880019545555115l.720001220703125-.480010986328125M92.639999389648438,133.08000123500824l1.199996948242188-.47998046875M90.960006713867188,131.16001832485199l.239990234375-.959991455078125M83.759994506835938,135.000014662742615h1.919998168945312M84.960006713867188,137.16001832485199l.719985961914062-.480010986328125M84.720001220703125,136.200026869773865l.959991455078125-.240020751953125M84.479995727539062,133.800002455711365l1.199996948242188.240020751953125M85.67999267578125,131.40000855922699l.720001220703125.480010986328125M84.479995727539062,132.60002076625824l1.199996948242188.47998046875M89.279998779296875,130.92002809047699v-2.160003662109375M89.039993286132812,140.28001344203949v-5.279998779296875M87.839996337890625,142.440017104148865h2.8800048828125M87.839996337890625,141.48002564907074h2.8800048828125M87.839996337890625,141.48002564907074h.960006713867188M90.720001220703125,143.40000855922699h-2.8800048828125v-3.1199951171875h2.8800048828125v3.1199951171875Z"/>
  <rect class="cls-8" x="87.839996337890625" y="162.60002076625824" width="2.8800048828125" height="2.8800048828125"/>
  <path class="cls-6" d="M85.67999267578125,158.28001344203949,92.8800048828125,157.320021986961365h1.67999267578125M92.639999389648438,159.000014662742615l.720001220703125.239990234375M92.8800048828125,158.04002320766449l.720001220703125.239990234375M92.8800048828125,156.120009779930115l.959991455078125-.239990234375M91.919998168945312,154.200026869773865l.720001220703125-.720001220703125M92.639999389648438,155.16001832485199l1.199996948242188-.480010986328125M90.960006713867188,153.240004897117615l.239990234375-.959991455078125M83.759994506835938,157.320021986961365h1.919998168945312M84.960006713867188,159.240004897117615l.719985961914062-.47998046875M84.720001220703125,158.28001344203949l.959991455078125-.239990234375M84.479995727539062,155.880019545555115l1.199996948242188.239990234375M85.67999267578125,153.48002564907074l.720001220703125.720001220703125M84.479995727539062,154.680007338523865l1.199996948242188.480010986328125M89.279998779296875,153.000014662742615v-2.160003662109375M87.839996337890625,164.52000367641449h2.8800048828125M87.839996337890625,163.560012221336365h2.8800048828125M87.839996337890625,163.560012221336365h.960006713867188M90.720001220703125,165.48002564907074h-2.8800048828125v-2.8800048828125h2.8800048828125v2.8800048828125Z"/>
  <path class="cls-10" d="M91.199996948242188,159.48002564907074c.479995727539062-.719970703125.719985961914062-1.439971923828125.719985961914062-2.15997314453125,0-1.920013427734375-1.199996948242188-3.600006103515625-2.639999389648438-3.600006103515625-1.439987182617188,0-2.639999389648438,1.67999267578125-2.639999389648438,3.600006103515625,0,.720001220703125.240005493164062,1.44000244140625.480010986328125,2.15997314453125l1.919998168945312-1.91998291015625"/>
  <path class="cls-5" d="M91.199996948242188,159.48002564907074c.479995727539062-.719970703125.719985961914062-1.439971923828125.719985961914062-2.15997314453125,0-1.920013427734375-1.199996948242188-3.600006103515625-2.639999389648438-3.600006103515625-1.439987182617188,0-2.639999389648438,1.67999267578125-2.639999389648438,3.600006103515625,0,.720001220703125.240005493164062,1.44000244140625.480010986328125,2.15997314453125l1.919998168945312-1.91998291015625"/>
  <line class="cls-6" x1="86.8800048828125" y1="156.360000014305115" x2="89.039993286132812" y2="154.440017104148865"/>
  <line class="cls-6" x1="86.8800048828125" y1="157.31999146938324" x2="90" y2="154.440017104148865"/>
  <line class="cls-6" x1="86.8800048828125" y1="158.279982924461365" x2="90.479995727539062" y2="154.919997572898865"/>
  <line class="cls-6" x1="87.360000610351562" y1="159.23997437953949" x2="90.959991455078125" y2="155.399978041648865"/>
  <line class="cls-6" x1="89.759994506835938" y1="157.79997193813324" x2="91.199981689453125" y2="156.11997926235199"/>
  <line class="cls-6" x1="90.239990234375" y1="158.279982924461365" x2="91.439987182617188" y2="157.08000123500824"/>
  <line class="cls-6" x1="90.959991455078125" y1="158.75999391078949" x2="91.439987182617188" y2="158.52000367641449"/>
  <line class="cls-6" x1="89.039993286132812" y1="162.599990248680115" x2="89.039993286132812" y2="157.800002455711365"/>
  <line class="cls-6" x1="67.44000244140625" y1="160.92002809047699" x2="67.44000244140625" y2="154.20005738735199"/>
  <polyline class="cls-11" points="66 160.200026869773865 67.439987182617188 163.32005250453949 68.879989624023438 160.200026869773865"/>
  <path class="cls-6" d="M89.279998779296875,94.680007338523865c-.960006713867188,0-1.44000244140625-.719970703125-1.44000244140625-1.199981689453125"/>
</svg>